<svg xmlns="http://www.w3.org/2000/svg" width="42" height="42" viewBox="0 0 42 42">
  <g id="Group_6" data-name="Group 6" transform="translate(905 -544)">
    <g id="Path_37" data-name="Path 37" transform="translate(-905 544)" fill="#fff">
      <path d="M 21 41 C 18.29957962036133 41 15.68045997619629 40.47134017944336 13.21539974212646 39.4287109375 C 10.83393955230713 38.42144012451172 8.694950103759766 36.97922134399414 6.857860088348389 35.14213943481445 C 5.020780086517334 33.30504989624023 3.57856011390686 31.16605949401855 2.571290016174316 28.78459930419922 C 1.52866005897522 26.31954002380371 1 23.70042037963867 1 21 C 1 18.29957962036133 1.52866005897522 15.68045997619629 2.571290016174316 13.21539974212646 C 3.57856011390686 10.83393955230713 5.020780086517334 8.694950103759766 6.857860088348389 6.857860088348389 C 8.694950103759766 5.020780086517334 10.83393955230713 3.57856011390686 13.21539974212646 2.571290016174316 C 15.68045997619629 1.52866005897522 18.29957962036133 1 21 1 C 25.22425079345703 1 29.25538063049316 2.305210113525391 32.65760040283203 4.774539947509766 C 36.01116943359375 7.208549976348877 38.53290939331055 10.60173988342285 39.95019912719727 14.58726978302002 C 40.62733840942383 16.48296928405762 41 18.75991058349609 41 21 C 41 23.70042037963867 40.47134017944336 26.31954002380371 39.4287109375 28.78459930419922 C 38.42144012451172 31.16605949401855 36.97922134399414 33.30504989624023 35.14213943481445 35.14213943481445 C 33.30504989624023 36.97922134399414 31.16605949401855 38.42144012451172 28.78459930419922 39.4287109375 C 26.31954002380371 40.47134017944336 23.70042037963867 41 21 41 Z" stroke="none"/>
      <path d="M 21 2 C 15.92491912841797 2 11.15360069274902 3.976341247558594 7.564968109130859 7.564968109130859 C 3.976341247558594 11.15360069274902 2 15.92491912841797 2 21 C 2 26.07508087158203 3.976341247558594 30.84640121459961 7.564968109130859 34.43502807617188 C 11.15360069274902 38.02365875244141 15.92491912841797 40 21 40 C 26.07508087158203 40 30.84640121459961 38.02365875244141 34.43502807617188 34.43502807617188 C 38.02365875244141 30.84640121459961 40 26.07508087158203 40 21 C 40 18.87162017822266 39.64804077148438 16.71413993835449 39.00798797607422 14.92233085632324 C 37.65866851806641 11.12791061401367 35.25962066650391 7.898708343505859 32.07020950317383 5.583839416503906 C 28.83987045288086 3.239269256591797 25.01185989379883 2 21 2 M 21 0 C 30.12752914428711 0 37.89498138427734 5.823219299316406 40.89239120483398 14.25222015380859 C 41.57341003417969 16.15873908996582 42 18.52955055236816 42 21 C 42 32.59798049926758 32.59798049926758 42 21 42 C 9.402019500732422 42 0 32.59798049926758 0 21 C 0 9.402019500732422 9.402019500732422 0 21 0 Z" stroke="none" fill="#b7e4c6"/>
    </g>
    <path id="Path_36" data-name="Path 36" d="M11.431,16.6,0,3.81,3.4,0l8.026,8.981L19.457,0l3.4,3.81Z" transform="translate(-891.93 576.356) rotate(-90)" fill="#b7e4c6"/>
  </g>
</svg>
