<svg id="Group_6" data-name="Group 6" xmlns="http://www.w3.org/2000/svg" width="34" height="34" viewBox="0 0 34 34">
  <g id="Path_37" data-name="Path 37" fill="#fff">
    <path d="M 17 33 C 12.72624969482422 33 8.708290100097656 31.3357105255127 5.68628978729248 28.3137092590332 C 2.664289951324463 25.29170989990234 1 21.27375030517578 1 17 C 1 12.72624969482422 2.664289951324463 8.708290100097656 5.68628978729248 5.68628978729248 C 8.708290100097656 2.664289951324463 12.72624969482422 1 17 1 C 20.37916946411133 1 23.60378074645996 2.044039964675903 26.32522010803223 4.019259929656982 C 29.00875091552734 5.966949939727783 31.02679061889648 8.68257999420166 32.16117095947266 11.87255954742432 C 32.7022705078125 13.38737964630127 33 15.20786952972412 33 17 C 33 21.27375030517578 31.3357105255127 25.29170989990234 28.3137092590332 28.3137092590332 C 25.29170989990234 31.3357105255127 21.27375030517578 33 17 33 Z" stroke="none"/>
    <path d="M 17 2 C 12.99336051940918 2 9.226520538330078 3.560270309448242 6.393400192260742 6.393400192260742 C 3.560270309448242 9.226520538330078 2 12.99336051940918 2 17 C 2 21.00664138793945 3.560270309448242 24.77347946166992 6.393400192260742 27.60659980773926 C 9.226520538330078 30.43972969055176 12.99336051940918 32 17 32 C 21.00664138793945 32 24.77347946166992 30.43972969055176 27.60659980773926 27.60659980773926 C 30.43972969055176 24.77347946166992 32 21.00664138793945 32 17 C 32 15.319580078125 31.72295951843262 13.61856079101562 31.21896934509277 12.20762062072754 C 30.15254974365234 9.208749771118164 28.25720024108887 6.657110214233398 25.73783111572266 4.828559875488281 C 23.18828010559082 2.978099822998047 20.16679000854492 2 17 2 M 17 0 C 24.38895988464355 0 30.67688941955566 4.714040756225586 33.10337066650391 11.53750991821289 C 33.65467071533203 13.08089065551758 34 15.0001106262207 34 17 C 34 26.38883972167969 26.38883972167969 34 17 34 C 7.611160278320312 34 0 26.38883972167969 0 17 C 0 7.611160278320312 7.611160278320312 0 17 0 Z" stroke="none" fill="#b7e4c6"/>
  </g>
  <path id="Path_36" data-name="Path 36" d="M8.751,12.71,0,2.917,2.607,0,8.751,6.876,14.9,0,17.5,2.917Z" transform="translate(10.581 26.189) rotate(-90)" fill="#b7e4c6"/>
</svg>
